# xmcd
#
# Track frame offsets:
#	150
#	53827
#	94727
#	135237
#	198810
#
# Disc length: 3543 seconds
#
# Revision: 1
# Processed by: cddbd v1.5.2PL0 Copyright (c) Steve Scherf et al.
# Submitted via: audiograbber 1.83.01
#
DISCID=360dd505
DTITLE=Grateful Dead - 93-06-11 Buckeye Lake Music Centre, Hebron OH
DYEAR=1900
DGENRE=
TTITLE0=Eyes Of The World
TTITLE1=Playing In The Band
TTITLE2=Uncle John's Band
TTITLE3=Corinna
TTITLE4=Drums
EXTD=
EXTT0=
EXTT1=
EXTT2=
EXTT3=
EXTT4=
PLAYORDER=
